<?xml version="1.0" standalone="no"?><!DOCTYPE svg PUBLIC "-//W3C//DTD SVG 1.1//EN" "http://www.w3.org/Graphics/SVG/1.1/DTD/svg11.dtd"><svg t="1553307695446" class="icon" style="" viewBox="0 0 1024 1024" version="1.1" xmlns="http://www.w3.org/2000/svg" p-id="7704" xmlns:xlink="http://www.w3.org/1999/xlink" width="128" height="128"><defs><style type="text/css"></style></defs><path d="M790.805 993.473c-12.283 0-25.47-3.432-38.655-10.476L554.9 879.314c-22.037-11.56-62.318-11.56-84.355 0l-197.25 103.683c-26.552 13.908-52.563 13.908-71.71 0-19.147-13.909-27.276-38.836-22.218-68.28L217.12 695.07c4.155-24.566-8.128-62.86-26.01-80.2L31.61 459.346c-21.676-20.953-29.805-45.7-22.399-68.279 7.225-22.398 28.54-37.752 58.164-42.087l220.55-31.972c24.747-3.612 57.26-27.275 68.28-49.673L454.83 67.556c13.186-26.914 34.32-42.268 57.983-42.268 23.663 0 44.796 15.354 57.983 42.268l98.444 199.779c11.018 22.398 43.532 46.06 68.278 49.673L958.07 348.98c29.623 4.335 50.757 19.689 58.163 42.087 7.225 22.399-0.723 47.326-22.218 68.279L834.518 614.87c-17.883 17.34-30.347 55.634-26.011 80.2l37.752 219.648c5.057 29.443-3.071 54.37-22.218 68.279-9.754 6.864-21.134 10.476-33.236 10.476zM512.632 805.075c26.011 0 51.841 5.419 72.614 16.256l195.985 102.96-37.39-218.022c-7.948-46.06 11.38-105.489 44.977-138.183l158.594-154.62-219.106-31.792c-46.241-6.683-96.818-43.351-117.59-85.438L512.631 97.722 414.55 296.236c-20.772 41.906-71.169 78.574-117.59 85.438L78.032 413.466l158.594 154.62c33.417 32.694 52.745 92.122 44.978 138.183l-37.391 218.203 195.985-102.96c20.592-11.018 46.422-16.437 72.433-16.437z" fill="#d81e06" p-id="7705"></path></svg>