<?xml version="1.0" standalone="no"?><!DOCTYPE svg PUBLIC "-//W3C//DTD SVG 1.1//EN" "http://www.w3.org/Graphics/SVG/1.1/DTD/svg11.dtd"><svg t="1553307712024" class="icon" style="" viewBox="0 0 1024 1024" version="1.1" xmlns="http://www.w3.org/2000/svg" p-id="8616" xmlns:xlink="http://www.w3.org/1999/xlink" width="128" height="128"><defs><style type="text/css"></style></defs><path d="M898.814348 748.372475c-11.864212 0-21.457708-9.593496-21.457708-21.473057l0-472.767464c0-23.712051-19.331277-42.97886-42.97886-42.97886l-644.682905 0c-23.712051 0-42.97886 19.266809-42.97886 42.97886l0 515.746324c0 23.695678 19.266809 42.97886 42.97886 42.97886L726.898907 812.857139c11.879562 0 21.521153 9.641591 21.521153 21.521153 0 11.816117-9.641591 21.457708-21.521153 21.457708L189.694875 855.835999c-47.424102 0-85.974094-38.549991-85.974094-85.957721l0-515.746324c0-47.39238 38.549991-85.957721 85.974094-85.957721l644.682905 0c47.40773 0 85.957721 38.566364 85.957721 85.957721l0 472.767464C920.335501 738.77898 910.69391 748.372475 898.814348 748.372475L898.814348 748.372475zM742.120586 849.520153c-4.221138 4.221138-9.689686 6.315846-15.22168 6.315846-5.516644 0-10.984169-2.094708-15.205307-6.315846l-415.462317-415.445944L139.45668 571.021232c-8.857738 7.867178-22.449291 7.131421-30.315446-1.759063-7.91425-8.857738-7.083326-22.449291 1.774413-30.331819l171.931814-150.442384c8.473999-7.546883 21.409612-7.194866 29.484521 0.87902l429.788603 429.788603C750.498394 827.550793 750.498394 841.157695 742.120586 849.520153L742.120586 849.520153zM914.17929 741.913367c-4.221138 4.317329-9.801227 6.460132-15.365966 6.460132-5.40408 0-10.840906-2.030239-14.997576-6.108115l-226.662323-221.497697L535.236726 642.668015c-8.425903 8.378831-22.032806 8.378831-30.426987 0-8.394181-8.394181-8.394181-21.98471 0-30.379914l136.963395-136.963395c8.346085-8.330736 21.776979-8.425903 30.219255-0.207731L913.828296 711.518103C922.302295 719.816093 922.478304 733.406622 914.17929 741.913367L914.17929 741.913367z" p-id="8617" fill="#13227a"></path></svg>