<?xml version="1.0" standalone="no"?><!DOCTYPE svg PUBLIC "-//W3C//DTD SVG 1.1//EN" "http://www.w3.org/Graphics/SVG/1.1/DTD/svg11.dtd"><svg t="1553323475532" class="icon" style="" viewBox="0 0 1024 1024" version="1.1" xmlns="http://www.w3.org/2000/svg" p-id="4349" xmlns:xlink="http://www.w3.org/1999/xlink" width="128" height="128"><defs><style type="text/css"></style></defs><path d="M509.1 121.5c-216.8 0-393.2 176.4-393.2 393.2 0 216.8 176.4 393.2 393.2 393.2 216.8 0 393.2-176.4 393.2-393.2-0.1-216.9-176.4-393.2-393.2-393.2z m124.7 180.8c0-9.8 7.9-17.7 17.7-17.7s17.7 7.9 17.7 17.7V472c0 9.8-7.9 17.7-17.7 17.7s-17.7-7.9-17.7-17.7V302.3z m-292.3 0c0-9.8 7.9-17.7 17.7-17.7s17.7 7.9 17.7 17.7V472c0 9.8-7.9 17.7-17.7 17.7s-17.7-7.9-17.7-17.7V302.3z m372.6 426.6C656.2 792.2 573.8 828 488.9 828c-10.7 0-21.4-0.6-32.1-1.7-108.2-11.7-202.6-80.7-246.6-180.3-3.9-8.9 0.1-19.4 9-23.3 8.9-4 19.4 0.1 23.3 9 38.8 88 122.3 149.1 217.9 159.3 84.8 9.2 169.9-23 227.6-86 6.6-7.2 17.8-7.7 25-1.1 7.2 6.6 7.6 17.8 1.1 25z m35.7-58.2c-9.8 0-17.7-7.9-17.7-17.7 0-9.8 7.9-17.7 17.7-17.7s17.7 7.9 17.7 17.7c0 9.8-7.9 17.7-17.7 17.7z" fill="#FFFFFF" p-id="4350"></path><path d="M509.1 86.1c-236.3 0-428.5 192.2-428.5 428.5s192.2 428.5 428.5 428.5 428.5-192.2 428.5-428.5S745.4 86.1 509.1 86.1z m0 821.7c-216.8 0-393.2-176.4-393.2-393.2 0-216.8 176.4-393.2 393.2-393.2 216.8 0 393.2 176.4 393.2 393.2-0.1 216.8-176.4 393.2-393.2 393.2z" fill="" p-id="4351"></path><path d="M688 705c-57.7 63-142.7 95.2-227.5 86.1-95.6-10.2-179-71.3-217.9-159.3-3.9-8.9-14.4-13-23.3-9-8.9 3.9-13 14.4-9 23.3 43.9 99.6 138.4 168.6 246.4 180.2 10.7 1.1 21.4 1.7 32.1 1.7 84.9 0 167.3-35.8 225.2-99.1 6.6-7.2 6.1-18.4-1.1-25-7.1-6.6-18.3-6.1-24.9 1.1zM359.2 489.7c9.8 0 17.7-7.9 17.7-17.7V302.3c0-9.8-7.9-17.7-17.7-17.7s-17.7 7.9-17.7 17.7V472c0 9.8 7.9 17.7 17.7 17.7zM651.5 489.7c9.8 0 17.7-7.9 17.7-17.7V302.3c0-9.8-7.9-17.7-17.7-17.7s-17.7 7.9-17.7 17.7V472c0 9.8 7.9 17.7 17.7 17.7z" fill="" p-id="4352"></path><path d="M749.8 653m-17.7 0a17.7 17.7 0 1 0 35.4 0 17.7 17.7 0 1 0-35.4 0Z" fill="" p-id="4353"></path></svg>