<?xml version="1.0" standalone="no"?><!DOCTYPE svg PUBLIC "-//W3C//DTD SVG 1.1//EN" "http://www.w3.org/Graphics/SVG/1.1/DTD/svg11.dtd"><svg t="1553165469799" class="icon" style="" viewBox="0 0 1024 1024" version="1.1" xmlns="http://www.w3.org/2000/svg" p-id="5093" xmlns:xlink="http://www.w3.org/1999/xlink" width="200" height="200"><defs><style type="text/css"></style></defs><path d="M864.5 363.1c-19.3-45.6-46.8-86.5-82-121.6-35.1-35.1-76-62.7-121.6-82-47.2-20-97.3-30.1-148.9-30.1s-101.7 10.1-148.9 30.1c-45.6 19.3-86.5 46.8-121.6 82-35.1 35.1-62.7 76-82 121.6-20 47.2-30.1 97.3-30.1 148.9s10.1 101.7 30.1 148.9c19.3 45.6 46.8 86.5 82 121.6 35.1 35.1 76 62.7 121.6 82 47.2 20 97.3 30.1 148.9 30.1s101.7-10.1 148.9-30.1c45.6-19.3 86.5-46.8 121.6-82 35.1-35.1 62.7-76 82-121.6 20-47.2 30.1-97.3 30.1-148.9s-10.2-101.7-30.1-148.9zM754.2 754.2C689.5 818.9 603.5 854.5 512 854.5s-177.5-35.6-242.2-100.3C205.1 689.5 169.5 603.5 169.5 512s35.6-177.5 100.3-242.2c64.7-64.7 150.7-100.3 242.2-100.3s177.5 35.6 242.2 100.3c64.7 64.7 100.3 150.7 100.3 242.2s-35.6 177.5-100.3 242.2z" p-id="5094" fill="#2c2c2c"></path><path d="M534.7 492.7V287c0-11-9-20-20-20s-20 9-20 20v205.7H289c-11 0-20 9-20 20s9 20 20 20l205.7-0.1v205.8c0 11 9 20 20 20s20-9 20-20l-1-205.7h206.7c11 0 20-9 20-20s-9-20-20-20H534.7z" p-id="5095" fill="#2c2c2c"></path></svg>